<?xml version="1.0" encoding="UTF-8"?>
<!DOCTYPE svg PUBLIC "-//W3C//DTD SVG 1.1//EN" "http://www.w3.org/Graphics/SVG/1.1/DTD/svg11.dtd">
<!-- Creator: CorelDRAW (OEM Version) -->
<svg xmlns="http://www.w3.org/2000/svg" xml:space="preserve" width="107.494mm" height="38.349mm" version="1.1" style="shape-rendering:geometricPrecision; text-rendering:geometricPrecision; image-rendering:optimizeQuality; fill-rule:evenodd; clip-rule:evenodd"
viewBox="0 0 3523.82 1257.14"
 xmlns:xlink="http://www.w3.org/1999/xlink"
 xmlns:xodm="http://www.corel.com/coreldraw/odm/2003">
 <defs>
  <style type="text/css">
   <![CDATA[
    .fil2 {fill:#00A551;fill-rule:nonzero}
    .fil0 {fill:#2E3191;fill-rule:nonzero}
    .fil1 {fill:#77787B;fill-rule:nonzero}
   ]]>
  </style>
 </defs>
 <g id="Layer_x0020_1">
  <metadata id="CorelCorpID_0Corel-Layer"/>
  <path class="fil0" d="M716.29 908.89c-4.48,0 -8.98,-1.52 -12.69,-4.62l-517.83 -434.24 -36.94 29.24 0 389.85c0,10.91 -8.84,19.76 -19.76,19.76 -10.91,0 -19.76,-8.84 -19.76,-19.76l0 -399.41c0,-6.04 2.76,-11.75 7.49,-15.49l57.06 -45.17c7.34,-5.82 17.77,-5.68 24.96,0.35l530.16 444.58c8.36,7.01 9.46,19.48 2.45,27.83 -3.91,4.66 -9.52,7.07 -15.15,7.07z"/>
  <path class="fil0" d="M426.26 763.86c-4.57,0 -9.15,-1.58 -12.85,-4.75l-297.17 -254.39c-8.29,-7.09 -9.26,-19.57 -2.16,-27.85 7.09,-8.29 19.57,-9.26 27.86,-2.16l284.17 243.25 277.17 -243.1c8.2,-7.21 20.69,-6.37 27.89,1.83 7.2,8.21 6.38,20.69 -1.83,27.89l-290.04 254.38c-3.72,3.27 -8.39,4.9 -13.03,4.9z"/>
  <path class="fil1" d="M142.39 965.05c-8.6,0 -16.51,-5.65 -18.99,-14.33 -3,-10.49 3.07,-21.43 13.57,-24.43 69.95,-20.01 317.88,-79.44 571.63,-4.28 10.47,3.1 16.44,14.1 13.34,24.56 -3.09,10.46 -14.12,16.44 -24.55,13.34 -243.54,-72.14 -482.21,-14.89 -549.55,4.37 -1.82,0.52 -3.65,0.76 -5.45,0.76z"/>
  <path class="fil0" d="M129.09 908.89c-5.65,0 -11.24,-2.41 -15.15,-7.07 -7.01,-8.36 -5.92,-20.82 2.45,-27.83l530.17 -444.58c7.19,-6.02 17.61,-6.16 24.97,-0.35l57.06 45.17c4.73,3.74 7.49,9.46 7.49,15.49l0 399.41c0,10.91 -8.85,19.76 -19.77,19.76 -10.92,0 -19.76,-8.84 -19.76,-19.76l0 -389.85 -36.94 -29.24 -517.83 434.24c-3.69,3.1 -8.2,4.62 -12.68,4.62z"/>
  <path class="fil2" d="M200.94 1053.04c-9.05,0 -17.22,-6.26 -19.27,-15.47 -2.37,-10.65 4.34,-21.21 14.99,-23.59 88.46,-19.71 264.79,-46.87 451.85,-7.37 10.67,2.25 17.5,12.74 15.25,23.41 -2.26,10.68 -12.72,17.51 -23.43,15.25 -179.75,-37.96 -349.74,-11.73 -435.08,7.28 -1.44,0.32 -2.89,0.48 -4.32,0.48z"/>
  <path class="fil2" d="M142.39 965.05c-8.6,0.01 -16.51,-5.65 -18.99,-14.33 -3,-10.49 3.07,-21.43 13.57,-24.43 69.95,-20.01 317.88,-79.44 571.63,-4.28 10.47,3.1 16.44,14.1 13.34,24.56 -3.09,10.46 -14.13,16.43 -24.55,13.34 -243.54,-72.14 -482.21,-14.89 -549.55,4.37 -1.82,0.52 -3.65,0.76 -5.45,0.76z"/>
  <path class="fil2" d="M200.94 1053.04c-9.05,0 -17.22,-6.26 -19.27,-15.47 -2.37,-10.65 4.34,-21.21 14.99,-23.59 88.46,-19.71 264.79,-46.87 451.85,-7.37 10.67,2.25 17.5,12.74 15.25,23.41 -2.26,10.68 -12.72,17.51 -23.43,15.25 -179.75,-37.96 -349.74,-11.73 -435.08,7.28 -1.44,0.32 -2.89,0.48 -4.32,0.48z"/>
  <path class="fil2" d="M262.06 1143.63c-9.44,0 -17.81,-6.8 -19.46,-16.42 -1.85,-10.76 5.38,-20.97 16.14,-22.82 77.43,-13.26 197.04,-25.49 327.13,-8.38 10.82,1.42 18.44,11.35 17.02,22.17 -1.43,10.83 -11.54,18.43 -22.17,17.01 -125.24,-16.48 -240.58,-4.66 -315.3,8.15 -1.13,0.19 -2.25,0.29 -3.36,0.29z"/>
  <path class="fil2" d="M469.62 1210.21c0,25.92 -21.01,46.93 -46.93,46.93 -25.92,0 -46.93,-21.01 -46.93,-46.93 0,-25.92 21.01,-46.93 46.93,-46.93 25.91,0 46.93,21.01 46.93,46.93z"/>
  <path class="fil2" d="M776 829.52c-3.53,0 -7.11,-0.95 -10.33,-2.94 -9.3,-5.72 -12.19,-17.89 -6.48,-27.18 37.57,-61.01 57.42,-131.35 57.42,-203.4 0,-214.25 -174.3,-388.55 -388.54,-388.55 -214.25,0 -388.56,174.3 -388.56,388.55 0,63.58 15.69,126.65 45.38,182.38 5.13,9.63 1.48,21.6 -8.16,26.73 -9.61,5.13 -21.59,1.48 -26.73,-8.16 -32.71,-61.42 -50.01,-130.91 -50.01,-200.95 0,-236.04 192.03,-428.07 428.07,-428.07 236.04,0 428.07,192.03 428.07,428.07 0,79.38 -21.89,156.88 -63.29,224.12 -3.74,6.06 -10.21,9.4 -16.85,9.4z"/>
  <path class="fil2" d="M3493.68 1073.99l-2470.31 0c-4.56,0 -8.25,-3.38 -8.25,-7.56 0,-4.17 3.69,-7.55 8.25,-7.55l2470.31 0c4.56,0 8.25,3.38 8.25,7.55 0,4.17 -3.69,7.56 -8.25,7.56z"/>
  <polygon class="fil0" points="1017,1255.7 1017,1171.31 1080.53,1171.31 1080.53,1187.82 1035.32,1187.82 1035.32,1204.94 1075.11,1204.94 1075.11,1221.46 1035.32,1221.46 1035.32,1239.18 1081.14,1239.18 1081.14,1255.7 "/>
  <polygon class="fil0" points="1168.05,1255.7 1149.12,1226.77 1130.08,1255.7 1108.98,1255.7 1138.39,1212.78 1110.18,1171.31 1131.89,1171.31 1149.61,1198.67 1167.44,1171.31 1188.54,1171.31 1160.33,1212.54 1189.75,1255.7 "/>
  <path class="fil0" d="M1269.2 1200.85c0,-4.18 -1.34,-7.35 -4.04,-9.52 -2.69,-2.17 -6.37,-3.26 -11.03,-3.26l-14.35 0 0 25.8 14.7 0c4.66,0 8.28,-1.22 10.86,-3.67 2.57,-2.45 3.85,-5.49 3.85,-9.1l0 -0.24zm16.16 12.78c-1.77,3.7 -4.2,6.8 -7.29,9.29 -3.1,2.49 -6.71,4.36 -10.85,5.61 -4.14,1.25 -8.58,1.87 -13.32,1.87l-14.11 0 0 25.32 -18.56 0 0 -84.39 34.48 0c5.06,0 9.59,0.7 13.57,2.11 3.98,1.41 7.35,3.39 10.12,5.96 2.78,2.57 4.9,5.65 6.39,9.22 1.49,3.58 2.23,7.54 2.23,11.88l0 0.24c0,4.9 -0.88,9.21 -2.65,12.9z"/>
  <polygon class="fil0" points="1319.36,1255.7 1319.36,1171.31 1382.89,1171.31 1382.89,1187.82 1337.68,1187.82 1337.68,1204.94 1377.46,1204.94 1377.46,1221.46 1337.68,1221.46 1337.68,1239.18 1383.49,1239.18 1383.49,1255.7 "/>
  <path class="fil0" d="M1469.32 1200.12c0,-4.02 -1.29,-7.03 -3.86,-9.04 -2.57,-2.01 -6.15,-3.02 -10.73,-3.02l-18.44 0 0 24.23 18.81 0c4.58,0 8.09,-1.08 10.55,-3.26 2.45,-2.17 3.67,-5.06 3.67,-8.68l0 -0.24zm-0.36 55.58l-18.08 -27.01 -14.59 0 0 27.01 -18.56 0 0 -84.39 38.57 0c10.04,0 17.86,2.46 23.45,7.36 5.59,4.9 8.38,11.74 8.38,20.5l0 0.24c0,6.83 -1.67,12.39 -5,16.69 -3.34,4.3 -7.7,7.46 -13.09,9.46l20.61 30.14 -21.69 0z"/>
  <polygon class="fil0" points="1523.33,1171.31 1541.89,1171.31 1541.89,1255.7 1523.33,1255.7 "/>
  <polygon class="fil0" points="1580.6,1255.7 1580.6,1171.31 1644.13,1171.31 1644.13,1187.82 1598.93,1187.82 1598.93,1204.94 1638.71,1204.94 1638.71,1221.46 1598.93,1221.46 1598.93,1239.18 1644.74,1239.18 1644.74,1255.7 "/>
  <polygon class="fil0" points="1738.17,1255.7 1697.3,1202.05 1697.3,1255.7 1678.98,1255.7 1678.98,1171.31 1696.09,1171.31 1735.64,1223.26 1735.64,1171.31 1753.96,1171.31 1753.96,1255.7 "/>
  <path class="fil0" d="M1859.2 1248.34c-2.34,1.85 -4.88,3.44 -7.66,4.76 -2.77,1.32 -5.81,2.33 -9.1,3.01 -3.29,0.68 -6.99,1.03 -11.09,1.03 -6.18,0 -11.93,-1.13 -17.24,-3.38 -5.3,-2.25 -9.88,-5.32 -13.74,-9.22 -3.86,-3.9 -6.87,-8.5 -9.04,-13.8 -2.17,-5.31 -3.26,-10.97 -3.26,-17l0 -0.24c0,-6.03 1.09,-11.68 3.26,-16.94 2.17,-5.26 5.19,-9.88 9.04,-13.86 3.86,-3.98 8.48,-7.11 13.86,-9.41 5.39,-2.29 11.33,-3.44 17.85,-3.44 3.94,0 7.54,0.32 10.79,0.97 3.26,0.64 6.21,1.53 8.85,2.65 2.66,1.13 5.11,2.49 7.36,4.1 2.25,1.61 4.34,3.38 6.27,5.31l-11.82 13.62c-3.29,-2.97 -6.64,-5.3 -10.07,-6.99 -3.41,-1.69 -7.25,-2.53 -11.51,-2.53 -3.54,0 -6.81,0.68 -9.82,2.05 -3.01,1.37 -5.61,3.26 -7.78,5.66 -2.17,2.41 -3.86,5.21 -5.06,8.38 -1.2,3.17 -1.8,6.57 -1.8,10.19l0 0.24c0,3.62 0.6,7.03 1.8,10.25 1.21,3.21 2.87,6.02 5.01,8.43 2.13,2.41 4.7,4.32 7.72,5.73 3.01,1.41 6.33,2.11 9.94,2.11 4.82,0 8.9,-0.88 12.24,-2.65 3.34,-1.77 6.65,-4.18 9.95,-7.23l11.81 11.94c-2.17,2.33 -4.42,4.42 -6.75,6.27z"/>
  <polygon class="fil0" points="1898.38,1255.7 1898.38,1171.31 1961.91,1171.31 1961.91,1187.82 1916.71,1187.82 1916.71,1204.94 1956.49,1204.94 1956.49,1221.46 1916.71,1221.46 1916.71,1239.18 1962.52,1239.18 1962.52,1255.7 "/>
  <polygon class="fil0" points="2088.73,1188.42 2088.73,1255.7 2070.17,1255.7 2070.17,1188.42 2044.49,1188.42 2044.49,1171.31 2114.42,1171.31 2114.42,1188.42 "/>
  <polygon class="fil0" points="2199.04,1255.7 2199.04,1221.82 2164.81,1221.82 2164.81,1255.7 2146.25,1255.7 2146.25,1171.31 2164.81,1171.31 2164.81,1204.7 2199.04,1204.7 2199.04,1171.31 2217.61,1171.31 2217.61,1255.7 "/>
  <polygon class="fil0" points="2255.47,1255.7 2255.47,1171.31 2319,1171.31 2319,1187.82 2273.79,1187.82 2273.79,1204.94 2313.58,1204.94 2313.58,1221.46 2273.79,1221.46 2273.79,1239.18 2319.61,1239.18 2319.61,1255.7 "/>
  <path class="fil0" d="M2466.33 1241.89c-1.52,3.25 -3.63,5.99 -6.35,8.2 -2.71,2.21 -5.96,3.9 -9.72,5.06 -3.77,1.17 -7.93,1.75 -12.52,1.75 -6.43,0 -12.74,-1.1 -18.92,-3.31 -6.19,-2.22 -11.81,-5.61 -16.88,-10.19l10.97 -13.14c3.86,3.14 7.82,5.63 11.87,7.48 4.06,1.85 8.5,2.77 13.32,2.77 3.86,0 6.85,-0.7 8.99,-2.11 2.13,-1.41 3.19,-3.35 3.19,-5.85l0 -0.24c0,-1.21 -0.22,-2.28 -0.66,-3.2 -0.45,-0.92 -1.29,-1.79 -2.53,-2.59 -1.26,-0.8 -2.99,-1.61 -5.2,-2.41 -2.21,-0.8 -5.09,-1.65 -8.64,-2.53 -4.27,-1.04 -8.14,-2.21 -11.6,-3.49 -3.47,-1.28 -6.41,-2.87 -8.82,-4.76 -2.42,-1.89 -4.29,-4.24 -5.62,-7.05 -1.33,-2.82 -2,-6.31 -2,-10.49l0 -0.24c0,-3.86 0.72,-7.33 2.16,-10.43 1.43,-3.1 3.45,-5.77 6.05,-8.02 2.59,-2.25 5.69,-3.98 9.3,-5.19 3.6,-1.2 7.57,-1.8 11.91,-1.8 6.19,0 11.88,0.92 17.06,2.77 5.19,1.85 9.94,4.5 14.28,7.96l-9.64 13.99c-3.78,-2.57 -7.48,-4.6 -11.09,-6.09 -3.62,-1.48 -7.24,-2.23 -10.85,-2.23 -3.62,0 -6.33,0.7 -8.14,2.11 -1.81,1.41 -2.71,3.16 -2.71,5.25l0 0.24c0,1.37 0.26,2.55 0.79,3.56 0.52,1 1.47,1.91 2.84,2.71 1.37,0.8 3.25,1.57 5.63,2.29 2.38,0.73 5.37,1.57 9.01,2.53 4.27,1.12 8.08,2.4 11.42,3.8 3.35,1.41 6.16,3.09 8.46,5.06 2.29,1.97 4.03,4.28 5.2,6.93 1.17,2.66 1.75,5.83 1.75,9.53l0 0.24c0,4.18 -0.76,7.9 -2.28,11.15z"/>
  <polygon class="fil0" points="2568.44,1255.7 2568.44,1200.6 2544.68,1236.65 2544.2,1236.65 2520.7,1200.97 2520.7,1255.7 2502.37,1255.7 2502.37,1171.31 2522.38,1171.31 2544.56,1207 2566.75,1171.31 2586.76,1171.31 2586.76,1255.7 "/>
  <path class="fil0" d="M2661.86 1193.01l-11.21 27.37 22.43 0 -11.21 -27.37zm25.56 62.69l-7.71 -18.92 -35.69 0 -7.71 18.92 -18.93 0 36.16 -84.99 17.12 0 36.17 84.99 -19.41 0z"/>
  <path class="fil0" d="M2789.05 1200.12c0,-4.02 -1.29,-7.03 -3.86,-9.04 -2.57,-2.01 -6.15,-3.02 -10.73,-3.02l-18.44 0 0 24.23 18.81 0c4.58,0 8.09,-1.08 10.55,-3.26 2.45,-2.17 3.68,-5.06 3.68,-8.68l0 -0.24zm-0.36 55.58l-18.08 -27.01 -14.59 0 0 27.01 -18.56 0 0 -84.39 38.57 0c10.04,0 17.86,2.46 23.45,7.36 5.59,4.9 8.37,11.74 8.37,20.5l0 0.24c0,6.83 -1.67,12.39 -5,16.69 -3.34,4.3 -7.7,7.46 -13.08,9.46l20.61 30.14 -21.7 0z"/>
  <polygon class="fil0" points="2880.43,1188.42 2880.43,1255.7 2861.87,1255.7 2861.87,1188.42 2836.19,1188.42 2836.19,1171.31 2906.11,1171.31 2906.11,1188.42 "/>
  <polygon class="fil0" points="2991.7,1255.7 2991.7,1171.31 3010.27,1171.31 3010.27,1238.94 3052.34,1238.94 3052.34,1255.7 "/>
  <polygon class="fil0" points="3084.78,1171.31 3103.34,1171.31 3103.34,1255.7 3084.78,1255.7 "/>
  <polygon class="fil0" points="3185.32,1256.3 3168.92,1256.3 3134.8,1171.31 3155.3,1171.31 3177.36,1230.74 3199.42,1171.31 3219.43,1171.31 "/>
  <polygon class="fil0" points="3250.9,1171.31 3269.46,1171.31 3269.46,1255.7 3250.9,1255.7 "/>
  <polygon class="fil0" points="3367.36,1255.7 3326.49,1202.05 3326.49,1255.7 3308.17,1255.7 3308.17,1171.31 3325.28,1171.31 3364.83,1223.26 3364.83,1171.31 3383.15,1171.31 3383.15,1255.7 "/>
  <path class="fil0" d="M3482.18 1253.23c-5.98,2.61 -12.84,3.91 -20.55,3.91 -6.59,0 -12.6,-1.08 -18.02,-3.25 -5.43,-2.17 -10.09,-5.18 -13.98,-9.04 -3.9,-3.86 -6.94,-8.44 -9.1,-13.75 -2.17,-5.3 -3.26,-11.09 -3.26,-17.35l0 -0.24c0,-6.03 1.1,-11.68 3.31,-16.94 2.22,-5.26 5.29,-9.88 9.23,-13.86 3.94,-3.98 8.6,-7.11 13.98,-9.4 5.38,-2.29 11.29,-3.44 17.72,-3.44 3.78,0 7.21,0.27 10.31,0.78 3.09,0.52 5.96,1.27 8.62,2.23 2.65,0.97 5.14,2.17 7.47,3.62 2.33,1.45 4.58,3.09 6.75,4.94l-11.69 14.1c-1.61,-1.36 -3.22,-2.57 -4.83,-3.62 -1.61,-1.04 -3.28,-1.93 -5,-2.65 -1.73,-0.72 -3.6,-1.28 -5.61,-1.68 -2.01,-0.4 -4.22,-0.61 -6.63,-0.61 -3.38,0 -6.53,0.71 -9.46,2.11 -2.93,1.41 -5.51,3.3 -7.71,5.68 -2.22,2.38 -3.94,5.16 -5.19,8.33 -1.25,3.19 -1.87,6.59 -1.87,10.21l0 0.24c0,3.86 0.62,7.43 1.87,10.69 1.25,3.26 3.02,6.1 5.31,8.52 2.29,2.42 4.98,4.29 8.07,5.62 3.1,1.33 6.53,1.99 10.31,1.99 6.91,0 12.73,-1.7 17.48,-5.09l0 -12.15 -18.68 0 0 -16.03 36.65 0 0 36.65c-4.34,3.7 -9.5,6.85 -15.5,9.47z"/>
  <polygon class="fil0" points="1015.13,167.92 1383.28,676.9 1751.44,167.92 1751.44,972.62 1621.68,972.62 1621.68,565.24 1383.28,894.16 1145.9,565.24 1145.9,972.62 1015.13,972.62 "/>
  <path class="fil0" d="M2281.55 731.22l-107.64 -267.57 -107.63 267.57 215.26 0zm44.25 110.64l-303.77 0 -52.3 130.77 -147.87 0 352.06 -804.7 352.06 804.7 -147.87 0 -52.31 -130.77z"/>
  <polygon class="fil0" points="2858.92,589.39 3147.61,972.63 2984.65,972.63 2727.15,630.62 2727.15,972.63 2596.38,972.63 2596.38,198.1 2727.15,198.1 2727.15,548.14 2988.68,198.1 3152.63,198.1 "/>
  <path class="fil0" d="M3322.63 591.6c24.26,-13.92 51.31,-20.98 80.4,-20.98 41.73,0 78.22,14.72 108.45,43.74l12.35 11.85 0 -121.84 -3.88 -2.05c-36.44,-19.29 -75.35,-29.07 -115.66,-29.07 -46.65,0 -90.27,11.4 -129.66,33.88 -39.4,22.48 -71,53.42 -93.9,91.97 -22.94,38.58 -34.57,81.82 -34.57,128.52 0,46.27 11.63,89.5 34.55,128.49 22.9,38.96 54.38,70.22 93.57,92.91 39.18,22.71 82.93,34.22 130.02,34.22 40.31,0 79.22,-9.78 115.66,-29.07l3.88 -2.06 0 -121.85 -12.35 11.86c-30.23,29.02 -66.92,43.74 -109.08,43.74 -29.51,0 -56.66,-7.05 -80.69,-20.97 -24.07,-13.91 -43.32,-33.16 -57.23,-57.23 -13.91,-24.03 -20.97,-50.76 -20.97,-79.43 0,-29.06 7.14,-55.87 21.24,-79.69 14.1,-23.85 33.57,-43.02 57.87,-56.96z"/>
  <path class="fil0" d="M3447.93 63.98l11.83 0c2.36,0 4.36,-0.83 5.99,-2.48 1.63,-1.66 2.45,-3.67 2.45,-6.03 0,-2.36 -0.82,-4.36 -2.45,-5.99 -1.63,-1.63 -3.63,-2.45 -5.99,-2.45l-11.83 0 0 16.95zm20.57 31.27l-11.91 -21.48 -8.67 0 0 21.48 -9.8 0 0 -58.02 21.63 0c3.26,0 6.31,0.82 9.12,2.45 2.82,1.63 5.04,3.85 6.67,6.64 1.63,2.78 2.45,5.84 2.45,9.15 0,3.82 -1.06,7.27 -3.16,10.36 -2.12,3.09 -4.87,5.31 -8.29,6.67l13.27 22.75 -11.31 0z"/>
  <path class="fil2" d="M3457.46 14.59c-28.47,0 -51.64,23.16 -51.64,51.64 0,28.47 23.17,51.63 51.64,51.63 28.47,0 51.63,-23.16 51.63,-51.63 0,-28.48 -23.16,-51.64 -51.63,-51.64zm0 117.86c-36.52,0 -66.23,-29.71 -66.23,-66.22 0,-36.52 29.71,-66.23 66.23,-66.23 36.52,0 66.22,29.71 66.22,66.23 0,36.52 -29.7,66.22 -66.22,66.22z"/>
 </g>
</svg>
